# xmcd
#
# Track frame offsets:
#	150
#	26768
#	50975
#	77378
#	98171
#	125314
#	145286
#	173603
#	196745
#	222330
#	254589
#	273894
#
# Disc length: 3995 seconds
#
# Revision: 0
# Processed by: cddbd v1.4PL0 Copyright (c) Steve Scherf et al.
# Submitted via: dBpowerAMP V4.0
#
DISCID=a70f990c
DTITLE=Paul Holden - Harder Faster
DYEAR=1900
DGENRE=
TTITLE0=faces of angels
TTITLE1=gonna get ya
TTITLE2=together with a smile
TTITLE3=shooting star
TTITLE4=let your mind be free
TTITLE5=i got a feeling
TTITLE6=musica maquina
TTITLE7=pitchshifter
TTITLE8=lift
TTITLE9=chase
TTITLE10=welcome
TTITLE11=light circle
EXTD=
EXTT0=
EXTT1=
EXTT2=
EXTT3=
EXTT4=
EXTT5=
EXTT6=
EXTT7=
EXTT8=
EXTT9=
EXTT10=
EXTT11=
PLAYORDER=
